<?xml version="1.0" encoding="UTF-8" standalone="no"?>
<!DOCTYPE svg PUBLIC "-//W3C//DTD SVG 1.1//EN" "http://www.w3.org/Graphics/SVG/1.1/DTD/svg11.dtd">
<!-- Generiert durch Microsoft Visio, SVG Export DekarPIO_simple_example_SVG_050822.svg simple_ex -->
<svg xmlns="http://www.w3.org/2000/svg" xmlns:xlink="http://www.w3.org/1999/xlink" xmlns:ev="http://www.w3.org/2001/xml-events"
		xmlns:v="http://schemas.microsoft.com/visio/2003/SVGExtensions/" width="11.6929in" height="8.26772in"
		viewBox="0 0 841.89 595.276" xml:space="preserve" color-interpolation-filters="sRGB" class="st6">
	<v:documentProperties v:langID="1031" v:metric="true" v:viewMarkup="false">
		<v:userDefs>
			<v:ud v:nameU="msvNoAutoConnect" v:val="VT0(0):26"/>
		</v:userDefs>
	</v:documentProperties>

	<style type="text/css">
	<![CDATA[
		.st1 {fill:#ffffff;stroke:#000000;stroke-linecap:round;stroke-linejoin:round;stroke-width:0.75}
		.st2 {fill:#000000;font-family:Calibri;font-size:0.833336em}
		.st3 {font-size:1em}
		.st4 {marker-end:url(#mrkr4-39);stroke:#000000;stroke-linecap:round;stroke-linejoin:round;stroke-width:0.237638}
		.st5 {fill:#000000;fill-opacity:1;stroke:#000000;stroke-opacity:1;stroke-width:0.086174404659928}
		.st6 {fill:none;fill-rule:evenodd;font-size:12px;overflow:visible;stroke-linecap:square;stroke-miterlimit:3}
	]]>
	</style>

	<defs id="Markers">
		<g id="lend4">
			<path d="M 2 1 L 0 0 L 2 -1 L 2 1 " style="stroke:none"/>
		</g>
		<marker id="mrkr4-39" class="st5" v:arrowType="4" v:arrowSize="2" v:setback="23.2087" refX="-23.208747514911" orient="auto"
				markerUnits="strokeWidth" overflow="visible">
			<use xlink:href="#lend4" transform="scale(-11.604373757455,-11.604373757455) "/>
		</marker>
	</defs>
	<g v:mID="13" v:index="8" v:groupContext="foregroundPage">
		<v:userDefs>
			<v:ud v:nameU="msvThemeOrder" v:val="VT0(0):26"/>
		</v:userDefs>
		<title>simple_ex</title>
		<v:pageProperties v:drawingScale="0.0393701" v:pageScale="0.0393701" v:drawingUnits="24" v:shadowOffsetX="8.50394"
				v:shadowOffsetY="-8.50394"/>
		<v:layer v:name="Verbinder" v:index="0"/>
		<g id="shape3-1" v:mID="3" v:groupContext="shape" transform="translate(79.7244,-459.744)">
			<title>eso_eso1_nga</title>
			<desc>Natural gas</desc>
			<v:userDefs>
				<v:ud v:nameU="visVersion" v:val="VT0(15):26"/>
			</v:userDefs>
			<v:textBlock v:margins="rect(4,4,4,4)" v:tabSpace="42.5197"/>
			<v:textRect cx="56.6929" cy="552.756" width="113.39" height="85.0394"/>
			<rect x="0" y="510.236" width="113.386" height="85.0394" class="st1"/>
			<text x="33.65" y="555.76" class="st2" v:langID="1031"><v:paragraph v:horizAlign="1"/><v:tabList/>Natural gas</text>		</g>
		<g id="shape4-4" v:mID="4" v:groupContext="shape" transform="translate(79.7244,-353.445)">
			<title>eso_eso2_bga</title>
			<desc>Biogas</desc>
			<v:userDefs>
				<v:ud v:nameU="visVersion" v:val="VT0(15):26"/>
			</v:userDefs>
			<v:textBlock v:margins="rect(4,4,4,4)" v:tabSpace="42.5197"/>
			<v:textRect cx="56.6929" cy="552.756" width="113.39" height="85.0394"/>
			<rect x="0" y="510.236" width="113.386" height="85.0394" class="st1"/>
			<text x="43.48" y="555.76" class="st2" v:langID="1031"><v:paragraph v:horizAlign="1"/><v:tabList/>Biogas</text>		</g>
		<g id="shape5-7" v:mID="5" v:groupContext="shape" transform="translate(79.7244,-247.146)">
			<title>eso_eso3_egr</title>
			<desc>Electric Power (Grid)</desc>
			<v:userDefs>
				<v:ud v:nameU="visVersion" v:val="VT0(15):26"/>
			</v:userDefs>
			<v:textBlock v:margins="rect(4,4,4,4)" v:tabSpace="42.5197"/>
			<v:textRect cx="56.6929" cy="552.756" width="113.39" height="85.0394"/>
			<rect x="0" y="510.236" width="113.386" height="85.0394" class="st1"/>
			<text x="14.83" y="555.76" class="st2" v:langID="1031"><v:paragraph v:horizAlign="1"/><v:tabList/>Electric Power (Grid)</text>		</g>
		<g id="shape6-10" v:mID="6" v:groupContext="shape" transform="translate(311.811,-459.744)">
			<title>ecu_ecu1_gbo1</title>
			<desc>Gas boiler</desc>
			<v:userDefs>
				<v:ud v:nameU="CTypeTopLeftSnip" v:prompt="" v:val="VT0(0):5"/>
				<v:ud v:nameU="CTypeTopRightSnip" v:prompt="" v:val="VT0(0):5"/>
				<v:ud v:nameU="CTypeBotLeftSnip" v:prompt="" v:val="VT0(0):5"/>
				<v:ud v:nameU="CTypeBotRightSnip" v:prompt="" v:val="VT0(0):5"/>
				<v:ud v:nameU="CornerLockHoriz" v:prompt="" v:val="VT0(1):5"/>
				<v:ud v:nameU="CornerLockVert" v:prompt="" v:val="VT0(1):5"/>
				<v:ud v:nameU="CornerLockDiag" v:prompt="" v:val="VT0(0):5"/>
				<v:ud v:nameU="TopLeftOffset" v:prompt="" v:val="VT0(0.15748031496063):24"/>
				<v:ud v:nameU="TopRightOffset" v:prompt="" v:val="VT0(0.15748031496063):24"/>
				<v:ud v:nameU="BotLeftOffset" v:prompt="" v:val="VT0(0.15748031496063):24"/>
				<v:ud v:nameU="BotRightOffset" v:prompt="" v:val="VT0(0.15748031496063):24"/>
				<v:ud v:nameU="visVersion" v:prompt="" v:val="VT0(15):26"/>
			</v:userDefs>
			<v:textBlock v:margins="rect(4,4,4,4)" v:tabSpace="42.5197"/>
			<v:textRect cx="56.6929" cy="552.756" width="113.39" height="85.0394"/>
			<path d="M11.34 595.28 L102.05 595.28 A11.3384 11.3384 -180 0 0 113.39 583.94 L113.39 521.57 A11.3384 11.3384 -180 0
						 0 102.05 510.24 L11.34 510.24 A11.3384 11.3384 -180 0 0 0 521.57 L0 583.94 A11.3384 11.3384 -180 0 0 11.34
						 595.28 Z" class="st1"/>
			<text x="36.27" y="555.76" class="st2" v:langID="1031"><v:paragraph v:horizAlign="1"/><v:tabList/>Gas boiler</text>		</g>
		<g id="shape7-13" v:mID="7" v:groupContext="shape" transform="translate(311.811,-353.445)">
			<title>ecu_ecu2_ebo1</title>
			<desc>Electric boiler</desc>
			<v:userDefs>
				<v:ud v:nameU="CTypeTopLeftSnip" v:prompt="" v:val="VT0(0):5"/>
				<v:ud v:nameU="CTypeTopRightSnip" v:prompt="" v:val="VT0(0):5"/>
				<v:ud v:nameU="CTypeBotLeftSnip" v:prompt="" v:val="VT0(0):5"/>
				<v:ud v:nameU="CTypeBotRightSnip" v:prompt="" v:val="VT0(0):5"/>
				<v:ud v:nameU="CornerLockHoriz" v:prompt="" v:val="VT0(1):5"/>
				<v:ud v:nameU="CornerLockVert" v:prompt="" v:val="VT0(1):5"/>
				<v:ud v:nameU="CornerLockDiag" v:prompt="" v:val="VT0(0):5"/>
				<v:ud v:nameU="TopLeftOffset" v:prompt="" v:val="VT0(0.15748031496063):24"/>
				<v:ud v:nameU="TopRightOffset" v:prompt="" v:val="VT0(0.15748031496063):24"/>
				<v:ud v:nameU="BotLeftOffset" v:prompt="" v:val="VT0(0.15748031496063):24"/>
				<v:ud v:nameU="BotRightOffset" v:prompt="" v:val="VT0(0.15748031496063):24"/>
				<v:ud v:nameU="visVersion" v:prompt="" v:val="VT0(15):26"/>
			</v:userDefs>
			<v:textBlock v:margins="rect(4,4,4,4)" v:tabSpace="42.5197"/>
			<v:textRect cx="56.6929" cy="552.756" width="113.39" height="85.0394"/>
			<path d="M11.34 595.28 L102.05 595.28 A11.3384 11.3384 -180 0 0 113.39 583.94 L113.39 521.57 A11.3384 11.3384 -180 0
						 0 102.05 510.24 L11.34 510.24 A11.3384 11.3384 -180 0 0 0 521.57 L0 583.94 A11.3384 11.3384 -180 0 0 11.34
						 595.28 Z" class="st1"/>
			<text x="28.9" y="555.76" class="st2" v:langID="1031"><v:paragraph v:horizAlign="1"/><v:tabList/>Electric boiler</text>		</g>
		<g id="shape8-16" v:mID="8" v:groupContext="shape" transform="translate(481.89,-74.9156)">
			<title>est_est1_bat1</title>
			<desc>Storage 1</desc>
			<v:userDefs>
				<v:ud v:nameU="visVersion" v:prompt="" v:val="VT0(15):26"/>
			</v:userDefs>
			<v:textBlock v:margins="rect(4,4,4,4)" v:tabSpace="42.5197"/>
			<v:textRect cx="56.6929" cy="552.756" width="113.39" height="85.0394"/>
			<path d="M0 595.28 L102.05 595.28 L113.39 510.24 L11.34 510.24 L0 595.28 Z" class="st1"/>
			<text x="37.44" y="555.76" class="st2" v:langID="1031"><v:paragraph v:horizAlign="1"/><v:tabList/>Storage 1</text>		</g>
		<g id="shape9-19" v:mID="9" v:groupContext="shape" transform="translate(531.496,-481.004)">
			<title>col_col1_mis</title>
			<desc>Middle Pr steam</desc>
			<v:userDefs>
				<v:ud v:nameU="visVersion" v:val="VT0(15):26"/>
			</v:userDefs>
			<v:textBlock v:margins="rect(4,4,4,4)" v:tabSpace="42.5197"/>
			<v:textRect cx="21.2598" cy="574.016" width="37.21" height="31.8898"/>
			<path d="M0 574.02 A21.2598 21.2598 0 0 1 42.52 574.02 A21.2598 21.2598 0 1 1 0 574.02 Z" class="st1"/>
			<text x="6.95" y="565.02" class="st2" v:langID="1031"><v:paragraph v:horizAlign="1"/><v:tabList/>Middle <tspan
						x="16.93" dy="1.2em" class="st3">Pr </tspan><tspan x="8.75" dy="1.2em" class="st3">steam</tspan></text>		</g>
		<g id="shape10-24" v:mID="10" v:groupContext="shape" transform="translate(531.496,-326.87)">
			<title>col_col2_ele</title>
			<desc>Elec-tric</desc>
			<v:userDefs>
				<v:ud v:nameU="visVersion" v:val="VT0(15):26"/>
			</v:userDefs>
			<v:textBlock v:margins="rect(4,4,4,4)" v:tabSpace="42.5197"/>
			<v:textRect cx="21.2598" cy="574.016" width="37.21" height="31.8898"/>
			<path d="M0 574.02 A21.2598 21.2598 0 0 1 42.52 574.02 A21.2598 21.2598 0 1 1 0 574.02 Z" class="st1"/>
			<text x="11.54" y="571.02" class="st2" v:langID="1031"><v:paragraph v:horizAlign="1"/><v:tabList/>Elec-<tspan x="14.58"
						dy="1.2em" class="st3">tric</tspan></text>		</g>
		<g id="shape11-28" v:mID="11" v:groupContext="shape" transform="translate(680.315,-459.744)">
			<title>dem_dem1_mis1</title>
			<desc>Steam</desc>
			<v:userDefs>
				<v:ud v:nameU="visVersion" v:prompt="" v:val="VT0(15):26"/>
			</v:userDefs>
			<v:textBlock v:margins="rect(4,4,4,4)" v:tabSpace="42.5197"/>
			<v:textRect cx="56.6929" cy="552.756" width="113.39" height="85.0394"/>
			<path d="M0 595.28 L113.39 595.28 L113.39 510.24 L0 510.24 L0 595.28 ZM8.5 586.77 L104.88 586.77 L104.88 518.74 L8.5
						 518.74 L8.5 586.77 Z" class="st1"/>
			<text x="43.84" y="555.76" class="st2" v:langID="1031"><v:paragraph v:horizAlign="1"/><v:tabList/>Steam</text>		</g>
		<g id="shape12-31" v:mID="12" v:groupContext="shape" transform="translate(680.315,-305.61)">
			<title>dem_dem2_ele1</title>
			<desc>Electricity</desc>
			<v:userDefs>
				<v:ud v:nameU="visVersion" v:prompt="" v:val="VT0(15):26"/>
			</v:userDefs>
			<v:textBlock v:margins="rect(4,4,4,4)" v:tabSpace="42.5197"/>
			<v:textRect cx="56.6929" cy="552.756" width="113.39" height="85.0394"/>
			<path d="M0 595.28 L113.39 595.28 L113.39 510.24 L0 510.24 L0 595.28 ZM8.5 586.77 L104.88 586.77 L104.88 518.74 L8.5
						 518.74 L8.5 586.77 Z" class="st1"/>
			<text x="36.74" y="555.76" class="st2" v:langID="1031"><v:paragraph v:horizAlign="1"/><v:tabList/>Electricity</text>		</g>
		<g id="shape13-34" v:mID="13" v:groupContext="shape" v:layerMember="0" transform="translate(193.11,-495.177)">
			<title>con-eso_eso1_nga-ecu_ecu1_gbo1</title>
			<path d="M0 588.19 L113.19 588.19" class="st4"/>
		</g>
		<g id="shape14-40" v:mID="14" v:groupContext="shape" v:layerMember="0" transform="translate(193.11,-395.965)">
			<title>con-eso_eso2_bga-ecu_ecu1_gbo1</title>
			<path d="M0 595.28 L42.52 595.28 L42.52 488.98 L113.19 488.98" class="st4"/>
		</g>
		<g id="shape15-45" v:mID="15" v:groupContext="shape" v:layerMember="0" transform="translate(193.11,-289.665)">
			<title>con-eso_eso3_egr-ecu_ecu2_ebo1</title>
			<path d="M0 595.28 L62.01 595.28 L62.01 488.98 L113.19 488.98" class="st4"/>
		</g>
		<g id="shape16-50" v:mID="16" v:groupContext="shape" v:layerMember="0" transform="translate(193.11,-289.665)">
			<title>con-eso_eso3_egr-col_col2_ele</title>
			<path d="M0 595.28 L327.76 595.28 L327.76 536.81 L332.87 536.81" class="st4"/>
		</g>
		<g id="shape17-55" v:mID="17" v:groupContext="shape" v:layerMember="0" transform="translate(574.016,-341.043)">
			<title>con-col_col2_ele-dem_dem2_ele1</title>
			<path d="M0 588.19 L100.78 588.19" class="st4"/>
		</g>
		<g id="shape18-60" v:mID="18" v:groupContext="shape" v:layerMember="0" transform="translate(574.016,-495.177)">
			<title>con-col_col1_mis-dem_dem1_mis</title>
			<path d="M0 588.19 L100.78 588.19" class="st4"/>
		</g>
		<g id="shape19-65" v:mID="19" v:groupContext="shape" v:layerMember="0" transform="translate(425.197,-495.177)">
			<title>con-ecu_ecu1_gbo1-col_col1_mis</title>
			<path d="M0 588.19 L100.78 588.19" class="st4"/>
		</g>
		<g id="shape20-70" v:mID="20" v:groupContext="shape" v:layerMember="0" transform="translate(425.197,-395.965)">
			<title>con-ecu_ecu2_ebo1-col_col1_mis</title>
			<path d="M0 595.28 L10.63 595.28 L10.63 488.98 L100.78 488.98" class="st4"/>
		</g>
		<g id="shape21-75" v:mID="21" v:groupContext="shape" v:layerMember="0" transform="translate(555.591,-326.87)">
			<title>con-col_col2_ele-est_est1_bat1</title>
			<path d="M-2.83 595.28 L-2.83 605.91 L-11.34 605.91 L-11.34 756.68" class="st4"/>
		</g>
		<g id="shape22-80" v:mID="22" v:groupContext="shape" v:layerMember="0" transform="translate(589.606,-117.435)">
			<title>con-est_est1_bat1-col_col2_ele</title>
			<path d="M0 595.28 L16.3 595.28 L16.3 379.62 L-16.3 379.62" class="st4"/>
		</g>
	</g>
</svg>
